<svg xmlns="http://www.w3.org/2000/svg" width="512" height="512" viewBox="0 0 512 512" role="img" aria-label="\1ü Á4 |ě¤¸">
  <defs>
    <radialGradient id="bg" cx="35%" cy="25%" r="80%">
      <stop offset="0%" stop-color="#ffffff" stop-opacity="0.18"/>
      <stop offset="45%" stop-color="#ffffff" stop-opacity="0.08"/>
      <stop offset="100%" stop-color="#000000" stop-opacity="0.0"/>
    </radialGradient>
    <linearGradient id="suit" x1="0" y1="0" x2="1" y2="1">
      <stop offset="0%" stop-color="#111827"/>
      <stop offset="100%" stop-color="#0b1220"/>
    </linearGradient>
    <linearGradient id="tie" x1="0" y1="0" x2="0" y2="1">
      <stop offset="0%" stop-color="#E4003F"/>
      <stop offset="100%" stop-color="#A50034"/>
    </linearGradient>
    <filter id="soft" x="-20%" y="-20%" width="140%" height="140%">
      <feGaussianBlur stdDeviation="1.4"/>
    </filter>
  </defs>

  <!-- Background plate -->
  <rect x="0" y="0" width="512" height="512" fill="#0b0f19"/>
  <rect x="0" y="0" width="512" height="512" fill="url(#bg)"/>

  <!-- Subtle grain-ish dots -->
  <g opacity="0.12">
    <circle cx="68" cy="92" r="1.2" fill="#fff"/>
    <circle cx="112" cy="62" r="0.9" fill="#fff"/>
    <circle cx="440" cy="118" r="1.1" fill="#fff"/>
    <circle cx="404" cy="80" r="0.8" fill="#fff"/>
    <circle cx="458" cy="420" r="1.0" fill="#fff"/>
    <circle cx="74" cy="420" r="1.0" fill="#fff"/>
    <circle cx="120" cy="458" r="0.9" fill="#fff"/>
  </g>

  <!-- Portrait -->
  <g transform="translate(0,8)">
    <!-- Head shadow -->
    <ellipse cx="256" cy="206" rx="108" ry="118" fill="#000" opacity="0.25" filter="url(#soft)"/>

    <!-- Neck -->
    <path d="M224 278c10 26 54 26 64 0v-34h-64v34z" fill="#d6b59b"/>

    <!-- Face -->
    <path d="M256 112c-58 0-104 46-104 112 0 78 56 122 104 122s104-44 104-122c0-66-46-112-104-112z" fill="#e2c2a7"/>
    <!-- Cheek shading -->
    <path d="M170 226c12 58 52 96 86 104-42-24-68-60-74-108-3-24 2-49 12-70-18 18-28 44-24 74z" fill="#d6b59b" opacity="0.55"/>

    <!-- Hair -->
    <path d="M152 214c0-76 48-128 104-128s104 52 104 128c0 18-2 34-6 48 2-48-18-86-54-100-24-10-62-10-86 0-36 14-56 52-54 100-4-14-8-30-8-48z" fill="#0f172a"/>
    <path d="M190 150c22-22 46-34 66-34 28 0 44 10 62 26-18-4-32-2-44 4-12 6-22 16-32 24-18 14-36 18-52 16z" fill="#111827" opacity="0.9"/>

    <!-- Eyes -->
    <path d="M206 226c18-10 34-10 52 0" stroke="#1f2937" stroke-width="6" stroke-linecap="round" opacity="0.55"/>
    <path d="M254 226c18-10 34-10 52 0" stroke="#1f2937" stroke-width="6" stroke-linecap="round" opacity="0.55"/>
    <circle cx="232" cy="232" r="4.2" fill="#111827" opacity="0.85"/>
    <circle cx="280" cy="232" r="4.2" fill="#111827" opacity="0.85"/>

    <!-- Nose -->
    <path d="M256 236c-6 18-6 26 0 38" stroke="#caa38a" stroke-width="6" stroke-linecap="round" opacity="0.9"/>

    <!-- Mouth -->
    <path d="M226 286c18 14 42 14 60 0" stroke="#7c2d12" stroke-width="7" stroke-linecap="round" opacity="0.55"/>

    <!-- Shirt collar -->
    <path d="M224 244l32 42 32-42v34l-32 28-32-28v-34z" fill="#f8fafc"/>

    <!-- Tie -->
    <path d="M256 292l18 22-18 88-18-88 18-22z" fill="url(#tie)"/>

    <!-- Suit -->
    <path d="M136 470c10-86 56-146 120-170 64 24 110 84 120 170H136z" fill="url(#suit)"/>
    <path d="M196 306c-34 22-54 60-62 114h70l-8-114z" fill="#0b1220" opacity="0.85"/>
    <path d="M316 306c34 22 54 60 62 114h-70l8-114z" fill="#0b1220" opacity="0.85"/>

    <!-- Lapels highlight -->
    <path d="M208 308l48 68 48-68c-16 8-32 12-48 12s-32-4-48-12z" fill="#0f172a" opacity="0.9"/>
  </g>

  <!-- Border -->
  <rect x="24" y="24" width="464" height="464" rx="36" fill="none" stroke="#ffffff" stroke-opacity="0.12" stroke-width="2"/>
</svg>

