<svg width="1200" height="400" viewBox="0 0 1200 400" fill="none" xmlns="http://www.w3.org/2000/svg">
  <defs>
    <linearGradient id="paper" x1="230" y1="60" x2="980" y2="340" gradientUnits="userSpaceOnUse">
      <stop stop-color="#F3F4F6" stop-opacity="0.98"/>
      <stop offset="1" stop-color="#D1D5DB" stop-opacity="0.95"/>
    </linearGradient>
    <linearGradient id="paperEdge" x1="250" y1="70" x2="950" y2="320" gradientUnits="userSpaceOnUse">
      <stop stop-color="#FFFFFF" stop-opacity="0.85"/>
      <stop offset="1" stop-color="#9CA3AF" stop-opacity="0.75"/>
    </linearGradient>
    <filter id="softGlow" x="-300" y="-300" width="1800" height="1000" filterUnits="userSpaceOnUse" color-interpolation-filters="sRGB">
      <feGaussianBlur stdDeviation="14" result="blur"/>
      <feColorMatrix in="blur" type="matrix"
        values="1 0 0 0 0
                0 1 0 0 0
                0 0 1 0 0
                0 0 0 0.45 0" result="glow"/>
      <feMerge>
        <feMergeNode in="glow"/>
        <feMergeNode in="SourceGraphic"/>
      </feMerge>
    </filter>
    <filter id="shadow" x="-300" y="-300" width="1800" height="1000" filterUnits="userSpaceOnUse" color-interpolation-filters="sRGB">
      <feDropShadow dx="0" dy="18" stdDeviation="22" flood-color="#000000" flood-opacity="0.45"/>
    </filter>
  </defs>

  <!-- subtle red accent glow -->
  <g filter="url(#softGlow)" opacity="0.75">
    <path d="M328 86C445 36 608 34 722 78C845 126 913 219 873 284C831 353 682 360 545 332C418 306 308 240 292 178C277 122 301 97 328 86Z" fill="#E4003F" fill-opacity="0.22"/>
  </g>

  <!-- floating paper lines -->
  <g opacity="0.75">
    <path d="M300 86C360 72 432 70 500 78" stroke="#FFFFFF" stroke-opacity="0.28" stroke-width="8" stroke-linecap="round"/>
    <path d="M290 122C360 108 470 104 560 116" stroke="#FFFFFF" stroke-opacity="0.18" stroke-width="8" stroke-linecap="round"/>
    <path d="M318 314C394 330 480 332 560 322" stroke="#FFFFFF" stroke-opacity="0.14" stroke-width="10" stroke-linecap="round"/>
  </g>

  <!-- envelope group -->
  <g filter="url(#shadow)">
    <!-- back plate -->
    <path d="M310 118C310 103 322 91 338 91H862C878 91 890 103 890 118V292C890 307 878 319 862 319H338C322 319 310 307 310 292V118Z" fill="url(#paper)" />
    <!-- inner highlight -->
    <path d="M334 110H866V300H334V110Z" fill="url(#paperEdge)" opacity="0.2"/>

    <!-- flap -->
    <path d="M330 126C330 117 337 110 346 110H854C863 110 870 117 870 126V132L600 266L330 132V126Z" fill="#FFFFFF" fill-opacity="0.65"/>
    <path d="M330 132L600 266L870 132" stroke="#9CA3AF" stroke-opacity="0.45" stroke-width="2"/>

    <!-- front body -->
    <path d="M330 132L600 268L870 132V290C870 299 863 306 854 306H346C337 306 330 299 330 290V132Z" fill="#111827" fill-opacity="0.10"/>

    <!-- front seams -->
    <path d="M330 292L520 204" stroke="#6B7280" stroke-opacity="0.22" stroke-width="3" stroke-linecap="round"/>
    <path d="M870 292L680 204" stroke="#6B7280" stroke-opacity="0.22" stroke-width="3" stroke-linecap="round"/>
  </g>

  <!-- notification badge -->
  <g transform="translate(810 62)">
    <circle cx="86" cy="86" r="70" fill="#E4003F"/>
    <circle cx="86" cy="86" r="70" fill="#E4003F" opacity="0.35" filter="url(#softGlow)"/>
    <path d="M86 32C58 32 36 54 36 82C36 110 58 132 86 132C114 132 136 110 136 82C136 54 114 32 86 32Z" fill="#FFFFFF" fill-opacity="0.12"/>
    <!-- the '1' is a shape to avoid font dependency -->
    <path d="M79.5 56.5L96 48V124H79.5V66.5L66.5 73.5V59.5L79.5 56.5Z" fill="#FFFFFF"/>
  </g>
</svg>
